<?xml version="1.0" encoding="UTF-8"?>
<svg version="1.1" xmlns="http://www.w3.org/2000/svg" width="512" height="512">
<path d="M0 0 C1.01201477 0.00054382 2.02402954 0.00108765 3.06671143 0.00164795 C19.59887291 0.04238923 35.523992 0.95817716 51.75 4.375 C52.78125 4.58930664 53.8125 4.80361328 54.875 5.02441406 C101.10680927 14.94980561 143.72188765 37.60106665 177.75 70.375 C178.7390332 71.32318604 178.7390332 71.32318604 179.74804688 72.29052734 C189.23630305 81.43497479 197.9762044 90.73234009 205.75 101.375 C206.60806152 102.52605017 207.46613451 103.67709177 208.32421875 104.828125 C214.36236829 113.01930614 219.72095521 121.53304105 224.75 130.375 C225.11448242 131.00680176 225.47896484 131.63860352 225.85449219 132.28955078 C240.78473018 158.37464001 250.26385054 187.71085114 254.75 217.375 C254.92660156 218.49745117 255.10320312 219.61990234 255.28515625 220.77636719 C256.9420586 232.38947743 257.14873513 243.90679945 257.125 255.625 C257.12418427 257.14302216 257.12418427 257.14302216 257.12335205 258.69171143 C257.08261077 275.22387291 256.16682284 291.148992 252.75 307.375 C252.42854004 308.921875 252.42854004 308.921875 252.10058594 310.5 C242.17519439 356.73180927 219.52393335 399.34688765 186.75 433.375 C186.11787598 434.03435547 185.48575195 434.69371094 184.83447266 435.37304688 C175.69002521 444.86130305 166.39265991 453.6012044 155.75 461.375 C154.59894983 462.23306152 153.44790823 463.09113451 152.296875 463.94921875 C144.10569386 469.98736829 135.59195895 475.34595521 126.75 480.375 C126.11819824 480.73948242 125.48639648 481.10396484 124.83544922 481.47949219 C98.75035999 496.40973018 69.41414886 505.88885054 39.75 510.375 C38.62754883 510.55160156 37.50509766 510.72820312 36.34863281 510.91015625 C24.73552257 512.5670586 13.21820055 512.77373513 1.5 512.75 C-0.01802216 512.74918427 -0.01802216 512.74918427 -1.56671143 512.74835205 C-18.09887291 512.70761077 -34.023992 511.79182284 -50.25 508.375 C-51.796875 508.05354004 -51.796875 508.05354004 -53.375 507.72558594 C-99.60680927 497.80019439 -142.22188765 475.14893335 -176.25 442.375 C-176.90935547 441.74287598 -177.56871094 441.11075195 -178.24804688 440.45947266 C-187.73630305 431.31502521 -196.4762044 422.01765991 -204.25 411.375 C-205.10806152 410.22394983 -205.96613451 409.07290823 -206.82421875 407.921875 C-212.86236829 399.73069386 -218.22095521 391.21695895 -223.25 382.375 C-223.61448242 381.74319824 -223.97896484 381.11139648 -224.35449219 380.46044922 C-239.28473018 354.37535999 -248.76385054 325.03914886 -253.25 295.375 C-253.51490234 293.69132324 -253.51490234 293.69132324 -253.78515625 291.97363281 C-255.4420586 280.36052257 -255.64873513 268.84320055 -255.625 257.125 C-255.62445618 256.11298523 -255.62391235 255.10097046 -255.62335205 254.05828857 C-255.58261077 237.52612709 -254.66682284 221.601008 -251.25 205.375 C-251.03569336 204.34375 -250.82138672 203.3125 -250.60058594 202.25 C-240.67519439 156.01819073 -218.02393335 113.40311235 -185.25 79.375 C-184.61787598 78.71564453 -183.98575195 78.05628906 -183.33447266 77.37695312 C-174.19002521 67.88869695 -164.89265991 59.1487956 -154.25 51.375 C-153.09894983 50.51693848 -151.94790823 49.65886549 -150.796875 48.80078125 C-142.60569386 42.76263171 -134.09195895 37.40404479 -125.25 32.375 C-124.61819824 32.01051758 -123.98639648 31.64603516 -123.33544922 31.27050781 C-97.25035999 16.34026982 -67.91414886 6.86114946 -38.25 2.375 C-37.12754883 2.19839844 -36.00509766 2.02179687 -34.84863281 1.83984375 C-23.23552257 0.1829414 -11.71820055 -0.02373513 0 0 Z " fill="#A90000" transform="translate(255.25,-0.375)"/>
<path d="M0 0 C5.26466446 4.19067291 8.70090424 10.10271273 10.8125 16.4375 C11.78072455 37.22055248 9.41773722 57.5816549 5.4375 77.9375 C5.29069794 78.6894162 5.14389587 79.4413324 4.99264526 80.21603394 C4.55686787 82.42676652 4.11266708 84.63558658 3.6640625 86.84375 C3.51742661 87.5733342 3.37079071 88.3029184 3.2197113 89.05461121 C2.51313421 92.46730019 1.71709074 95.74738297 0.68994141 99.08349609 C-3.04511946 111.3745857 -2.53829758 123.47570128 -2.171875 136.22851562 C-2.06254173 140.06103734 -1.98561399 143.89316703 -1.9140625 147.7265625 C-1.85865927 150.20577209 -1.80142933 152.68494167 -1.7421875 155.1640625 C-1.70603836 156.85059433 -1.70603836 156.85059433 -1.66915894 158.57119751 C-1.33835083 169.55575426 -0.92908973 180.93825143 4.4375 190.75 C4.78723877 191.41733154 5.13697754 192.08466309 5.49731445 192.7722168 C9.47824717 200.09268503 14.27304417 206.56040642 21.8125 210.4375 C29.43106442 210.4375 34.98502909 206.41590411 40.21484375 201.22265625 C43.65137635 197.71938599 46.57305325 194.02202251 49.375 190 C49.87676758 189.28408691 50.37853516 188.56817383 50.89550781 187.83056641 C57.22576395 178.61462944 62.75679599 168.91866813 68.24414062 159.18554688 C69.64063707 156.73863467 71.08010554 154.32702611 72.546875 151.921875 C73.30300339 150.63595723 74.05829423 149.34954636 74.8125 148.0625 C75.451875 147.00289062 76.09125 145.94328125 76.75 144.8515625 C78.27892858 139.93875522 77.04778248 136.32752692 75.8125 131.4375 C72.59534531 115.68198311 71.40746328 100.22417178 71.375 84.1875 C71.36614777 82.95478867 71.36614777 82.95478867 71.3571167 81.69717407 C71.30434981 70.87035454 72.29994062 60.97828483 74.8125 50.4375 C75.04557861 49.33801025 75.27865723 48.23852051 75.51879883 47.10571289 C78.75160273 31.87651144 87.28706469 18.6852513 99.8125 9.4375 C114.84704841 0.23352438 131.66537295 -1.91779484 148.8125 1.625 C160.38104413 4.76815161 168.68787921 10.22053114 175.5625 20.125 C184.0986982 35.17185785 183.7018134 53.42806273 179.84765625 69.90234375 C172.43063095 95.23218486 157.42996785 118.51439206 143.30859375 140.53125 C142.87530762 141.21574219 142.44202148 141.90023437 141.99560547 142.60546875 C141.01069332 144.13059891 139.96724672 145.61773046 138.91015625 147.09375 C137.39307578 150.33306773 137.84909899 152.02063773 138.8125 155.4375 C142.88758681 165.6193111 148.00244833 174.60200929 157.9375 179.9375 C170.17556435 184.63155208 183.81966981 180.59685715 195.44921875 176 C204.46230509 171.87519921 210.94924988 166.39027078 217.8125 159.4375 C218.84065818 158.40966821 219.86930687 157.38232686 220.8984375 156.35546875 C222.79044436 154.46620614 224.66641669 152.56498909 226.53515625 150.65234375 C229.77136936 147.50494609 231.83688857 146.13709352 236.3125 146.0625 C240.49023359 146.17760773 240.49023359 146.17760773 242.75 148 C245.34863823 153.96158183 246.17333563 159.46247357 246.125 165.875 C246.12008545 166.65633301 246.1151709 167.43766602 246.11010742 168.24267578 C245.79025091 184.48482563 241.59872774 199.28396809 231.8125 212.4375 C230.69875 213.984375 230.69875 213.984375 229.5625 215.5625 C216.57474613 229.14060632 196.94129774 236.20979452 178.4609375 236.640625 C176.03650024 236.66177603 173.6120078 236.67723753 171.1875 236.6875 C169.39505859 236.7184375 169.39505859 236.7184375 167.56640625 236.75 C156.19603108 236.79927573 145.66486162 235.06235637 135.5625 229.6875 C134.88848145 229.33969482 134.21446289 228.99188965 133.52001953 228.63354492 C128.13743937 225.78024605 123.41398916 222.43274544 118.8125 218.4375 C117.801875 217.674375 116.79125 216.91125 115.75 216.125 C111.21666781 211.97748332 106.58185426 206.97620851 103.8125 201.4375 C99.84522095 202.75992635 98.3492766 205.33468273 95.9375 208.5625 C90.32338933 215.8921917 84.37157885 222.87209522 78.26269531 229.79199219 C77.02983807 231.19089081 75.80681605 232.59844744 74.5859375 234.0078125 C64.02518264 246.03647151 52.64618982 257.8260422 39.8125 267.4375 C39.03108643 268.03353027 39.03108643 268.03353027 38.23388672 268.64160156 C21.32573365 281.48411013 1.85814706 293.06078066 -20.1875 290.4375 C-23.50801594 288.97102608 -25.73863664 287.08870588 -28.1875 284.4375 C-28.63689941 283.96207764 -29.08629883 283.48665527 -29.54931641 282.99682617 C-33.74644717 278.37055058 -36.70516621 273.40994798 -39.5625 267.875 C-40.03727783 266.95589844 -40.51205566 266.03679687 -41.0012207 265.08984375 C-50.52907566 246.17228853 -55.87529155 225.85488237 -61.1875 205.4375 C-61.46335937 204.40318848 -61.73921875 203.36887695 -62.0234375 202.30322266 C-67.000606 183.56184249 -69.97288047 164.53404012 -72.88897705 145.38787842 C-73.152875 143.66371997 -73.4224455 141.94043183 -73.69287109 140.21728516 C-81.82315857 88.3435235 -81.82315857 88.3435235 -81.6875 63.8125 C-81.68558655 63.11300232 -81.6836731 62.41350464 -81.68170166 61.69281006 C-81.56407807 43.46332153 -79.46211392 22.14212019 -66.5625 8.0625 C-50.92274888 -6.0542791 -18.24692451 -12.06210553 0 0 Z " fill="#550000" transform="translate(174.1875,113.5625)"/>
</svg>
