<?xml version="1.0"?>
<svg xmlns="http://www.w3.org/2000/svg" xmlns:xlink="http://www.w3.org/1999/xlink" version="1.1" id="Layer_1" x="0px" y="0px" width="16" height="16" viewBox="0 0 1080 1080" enable-background="new 0 0 1080 1080" xml:space="preserve" style="background-color:transparent;">
<path fill="#331D0F" opacity="1.000000" stroke="none" d=" M487.000000,1.000001   C521.687561,1.000000 556.375122,1.000000 591.730896,1.376162   C594.725037,1.893396 597.057922,1.961826 599.375793,2.186226   C649.724792,7.060710 698.362915,19.138819 745.009583,38.519279   C849.579651,81.965302 933.013123,151.297287 995.521790,245.653717   C1040.447144,313.468231 1067.381104,388.067474 1078.178711,468.595490   C1079.047363,475.073273 1080.056274,481.532257 1081.000000,488.000000   C1081.000000,522.354248 1081.000000,556.708435 1080.632446,591.731323   C1077.111816,634.092712 1068.437012,674.667358 1054.858276,714.150574   C1017.120056,823.884033 950.777588,912.667114 857.279419,981.007507   C782.143188,1035.926758 697.877014,1068.124512 605.508057,1079.225830   C601.985168,1079.649170 598.501770,1080.401123 595.000000,1081.000000   C560.979126,1081.000000 526.958191,1081.000000 492.249542,1080.637695   C484.924774,1079.727173 478.264404,1079.377563 471.654602,1078.598511   C429.326385,1073.609619 388.330505,1063.101562 348.579803,1047.892944   C253.121902,1011.370728 174.260773,952.076416 111.617737,871.704163   C52.299614,795.597839 16.239422,709.328430 3.789727,613.422791   C2.990359,607.264954 1.935830,601.140137 1.000002,595.000000   C1.000000,559.979126 1.000000,524.958191 1.374635,489.279724   C2.789053,479.365143 3.620106,470.079132 4.902820,460.855896   C12.681904,404.921051 29.531704,351.772949 54.778008,301.324036   C94.269897,222.408615 149.468933,156.555099 220.396759,104.033630   C260.403809,74.408752 303.632080,50.539059 350.326385,33.096649   C388.788025,18.729515 428.492126,9.364160 469.103851,3.661344   C475.076019,2.822713 481.034943,1.889468 487.000000,1.000001  M528.931519,334.497986   C528.421997,336.765076 527.780151,339.011597 527.423828,341.302521   C524.596252,359.482544 520.278015,377.599243 519.429077,395.875305   C518.398132,418.068115 520.103760,440.405762 521.003479,462.665497   C521.877502,484.289154 525.356018,505.566772 530.635986,526.556213   C532.973206,535.847229 531.885742,544.456116 526.344971,552.688110   C521.152161,560.403137 516.807739,568.690796 512.119690,576.743774   C496.723053,603.191406 482.126984,630.155823 462.877350,654.141235   C454.181793,664.976135 444.624054,674.902039 431.629059,680.709900   C422.446228,684.813965 413.100800,686.552917 405.200684,678.602112   C397.989746,671.345032 390.840515,663.811279 384.971100,655.478821   C370.370941,634.751831 365.867188,610.787476 365.097534,586.007568   C364.436157,564.714233 364.320312,543.403931 363.960632,522.101135   C363.935333,520.602356 364.010956,519.089111 363.832306,517.607605   C361.845093,501.126312 362.871887,484.636078 365.869202,468.500549   C370.384857,444.191559 376.956482,420.259155 381.298370,395.924744   C385.166534,374.245422 387.341980,352.255371 389.961823,330.366241   C391.025421,321.480042 391.607117,312.506165 391.835693,303.557526   C392.131653,291.971191 393.159393,280.098846 388.737823,269.089722   C383.857544,256.938446 377.247711,245.627609 365.396942,238.793610   C352.326324,231.256165 337.945526,227.710159 322.991089,227.103134   C295.462738,225.985703 269.605469,232.220993 245.262772,245.280106   C229.259552,253.865341 218.558731,266.932831 211.160889,283.064056   C200.283508,306.782471 196.754730,332.179871 196.275208,357.820221   C195.806122,382.901794 196.830902,408.046509 198.155670,433.113007   C198.923782,447.647003 201.298660,462.122711 203.444519,476.551147   C206.738083,498.696594 210.440109,520.781494 214.000549,542.886963   C217.508408,564.665894 220.256638,586.605835 224.777130,608.173584   C231.215012,638.889465 238.431534,669.468323 246.291260,699.853333   C256.264923,738.410522 268.450958,776.225098 288.023102,811.270081   C295.231232,824.176575 303.527954,836.107056 314.553558,846.004150   C319.598419,850.532654 325.274017,853.736877 332.341309,853.988770   C354.390625,854.774475 375.352112,850.189514 395.199493,840.818176   C430.348816,824.221680 460.574738,800.507263 488.339630,773.772644   C504.239380,758.462952 518.762207,741.673401 533.337341,725.052429   C546.912048,709.572327 559.671326,693.379333 572.936584,677.623962   C576.005005,673.979492 579.499084,670.637451 583.120178,667.532654   C585.777954,665.253845 588.123779,665.810730 589.743042,669.349243   C590.976074,672.043823 592.780579,674.498718 594.487610,676.951050   C605.152771,692.272095 620.022278,703.107605 635.044006,713.451538   C656.288574,728.080261 679.512390,737.791626 705.840942,739.196899   C730.823425,740.530212 755.625061,740.833496 780.198120,735.033325   C803.608276,729.507629 824.999878,719.777832 843.179871,704.027222   C862.517822,687.273376 873.656677,665.178650 880.902100,641.064148   C884.976318,627.504272 886.581116,613.525635 887.278992,599.317383   C887.997803,584.680847 886.754639,570.555237 882.111267,556.662964   C880.797607,552.732666 878.270142,550.051697 874.539673,549.495605   C866.561096,548.306152 858.266907,547.838501 851.788208,553.808472   C841.387085,563.392944 831.383606,573.409546 821.229004,583.260864   C807.593018,596.489502 792.363403,607.351990 774.520142,614.166504   C756.170471,621.174377 737.317810,625.825134 717.476440,623.907166   C708.804443,623.068848 700.587463,620.483337 693.448608,615.038086   C676.325806,601.977478 666.443970,584.224854 660.014343,564.158691   C658.234131,558.602844 659.681396,553.646362 662.657166,549.001648   C669.480286,538.351746 676.505310,527.830078 683.248840,517.130554   C702.426514,486.702271 720.933960,455.935028 735.233643,422.773590   C748.713074,391.514343 756.090332,359.381287 752.012207,325.210510   C749.168945,301.386719 741.037170,280.316010 721.976807,264.240723   C705.131104,250.033264 685.605164,242.716675 664.158875,241.296219   C650.832458,240.413559 637.175171,241.330444 623.924866,243.236465   C603.480225,246.177399 584.927063,254.418686 569.331909,268.277679   C549.386414,286.002747 536.158752,307.990326 528.931519,334.497986  z"/>
<path fill="none" opacity="1.000000" stroke="none" d=" M595.468628,1081.000000   C598.501770,1080.401123 601.985168,1079.649170 605.508057,1079.225830   C697.877014,1068.124512 782.143188,1035.926758 857.279419,981.007507   C950.777588,912.667114 1017.120056,823.884033 1054.858276,714.150574   C1068.437012,674.667358 1077.111816,634.092712 1080.632446,592.199951   C1081.000000,754.926819 1081.000000,917.853699 1081.000000,1081.000000   C919.312500,1081.000000 757.624939,1081.000000 595.468628,1081.000000  z"/>
<path fill="none" opacity="1.000000" stroke="none" d=" M1081.000000,487.531342   C1080.056274,481.532257 1079.047363,475.073273 1078.178711,468.595490   C1067.381104,388.067474 1040.447144,313.468231 995.521790,245.653717   C933.013123,151.297287 849.579651,81.965302 745.009583,38.519279   C698.362915,19.138819 649.724792,7.060710 599.375793,2.186226   C597.057922,1.961826 594.725037,1.893396 592.199585,1.376162   C754.926941,1.000000 917.853821,1.000000 1081.000000,1.000000   C1081.000000,163.020828 1081.000000,325.041748 1081.000000,487.531342  z"/>
<path fill="none" opacity="1.000000" stroke="none" d=" M1.000002,595.468628   C1.935830,601.140137 2.990359,607.264954 3.789727,613.422791   C16.239422,709.328430 52.299614,795.597839 111.617737,871.704163   C174.260773,952.076416 253.121902,1011.370728 348.579803,1047.892944   C388.330505,1063.101562 429.326385,1073.609619 471.654602,1078.598511   C478.264404,1079.377563 484.924774,1079.727173 491.780884,1080.637695   C328.406616,1081.000000 164.813232,1081.000000 1.000000,1081.000000   C1.000000,919.312500 1.000000,757.624939 1.000002,595.468628  z"/>
<path fill="none" opacity="1.000000" stroke="none" d=" M486.531342,1.000001   C481.034943,1.889468 475.076019,2.822713 469.103851,3.661344   C428.492126,9.364160 388.788025,18.729515 350.326385,33.096649   C303.632080,50.539059 260.403809,74.408752 220.396759,104.033630   C149.468933,156.555099 94.269897,222.408615 54.778008,301.324036   C29.531704,351.772949 12.681904,404.921051 4.902820,460.855896   C3.620106,470.079132 2.789053,479.365143 1.374635,488.811096   C1.000000,326.406403 1.000000,163.812805 1.000000,1.000000   C162.687500,1.000000 324.375092,1.000000 486.531342,1.000001  z"/>
<path fill="#000000" opacity="1.000000" stroke="none" d=" M528.991455,334.091370   C536.158752,307.990326 549.386414,286.002747 569.331909,268.277679   C584.927063,254.418686 603.480225,246.177399 623.924866,243.236465   C637.175171,241.330444 650.832458,240.413559 664.158875,241.296219   C685.605164,242.716675 705.131104,250.033264 721.976807,264.240723   C741.037170,280.316010 749.168945,301.386719 752.012207,325.210510   C756.090332,359.381287 748.713074,391.514343 735.233643,422.773590   C720.933960,455.935028 702.426514,486.702271 683.248840,517.130554   C676.505310,527.830078 669.480286,538.351746 662.657166,549.001648   C659.681396,553.646362 658.234131,558.602844 660.014343,564.158691   C666.443970,584.224854 676.325806,601.977478 693.448608,615.038086   C700.587463,620.483337 708.804443,623.068848 717.476440,623.907166   C737.317810,625.825134 756.170471,621.174377 774.520142,614.166504   C792.363403,607.351990 807.593018,596.489502 821.229004,583.260864   C831.383606,573.409546 841.387085,563.392944 851.788208,553.808472   C858.266907,547.838501 866.561096,548.306152 874.539673,549.495605   C878.270142,550.051697 880.797607,552.732666 882.111267,556.662964   C886.754639,570.555237 887.997803,584.680847 887.278992,599.317383   C886.581116,613.525635 884.976318,627.504272 880.902100,641.064148   C873.656677,665.178650 862.517822,687.273376 843.179871,704.027222   C824.999878,719.777832 803.608276,729.507629 780.198120,735.033325   C755.625061,740.833496 730.823425,740.530212 705.840942,739.196899   C679.512390,737.791626 656.288574,728.080261 635.044006,713.451538   C620.022278,703.107605 605.152771,692.272095 594.487610,676.951050   C592.780579,674.498718 590.976074,672.043823 589.743042,669.349243   C588.123779,665.810730 585.777954,665.253845 583.120178,667.532654   C579.499084,670.637451 576.005005,673.979492 572.936584,677.623962   C559.671326,693.379333 546.912048,709.572327 533.337341,725.052429   C518.762207,741.673401 504.239380,758.462952 488.339630,773.772644   C460.574738,800.507263 430.348816,824.221680 395.199493,840.818176   C375.352112,850.189514 354.390625,854.774475 332.341309,853.988770   C325.274017,853.736877 319.598419,850.532654 314.553558,846.004150   C303.527954,836.107056 295.231232,824.176575 288.023102,811.270081   C268.450958,776.225098 256.264923,738.410522 246.291260,699.853333   C238.431534,669.468323 231.215012,638.889465 224.777130,608.173584   C220.256638,586.605835 217.508408,564.665894 214.000549,542.886963   C210.440109,520.781494 206.738083,498.696594 203.444519,476.551147   C201.298660,462.122711 198.923782,447.647003 198.155670,433.113007   C196.830902,408.046509 195.806122,382.901794 196.275208,357.820221   C196.754730,332.179871 200.283508,306.782471 211.160889,283.064056   C218.558731,266.932831 229.259552,253.865341 245.262772,245.280106   C269.605469,232.220993 295.462738,225.985703 322.991089,227.103134   C337.945526,227.710159 352.326324,231.256165 365.396942,238.793610   C377.247711,245.627609 383.857544,256.938446 388.737823,269.089722   C393.159393,280.098846 392.131653,291.971191 391.835693,303.557526   C391.607117,312.506165 391.025421,321.480042 389.961823,330.366241   C387.341980,352.255371 385.166534,374.245422 381.298370,395.924744   C376.956482,420.259155 370.384857,444.191559 365.869202,468.500549   C362.871887,484.636078 361.845093,501.126312 363.832306,517.607605   C364.010956,519.089111 363.935333,520.602356 363.960632,522.101135   C364.320312,543.403931 364.436157,564.714233 365.097534,586.007568   C365.867188,610.787476 370.370941,634.751831 384.971100,655.478821   C390.840515,663.811279 397.989746,671.345032 405.200684,678.602112   C413.100800,686.552917 422.446228,684.813965 431.629059,680.709900   C444.624054,674.902039 454.181793,664.976135 462.877350,654.141235   C482.126984,630.155823 496.723053,603.191406 512.119690,576.743774   C516.807739,568.690796 521.152161,560.403137 526.344971,552.688110   C531.885742,544.456116 532.973206,535.847229 530.635986,526.556213   C525.356018,505.566772 521.877502,484.289154 521.003479,462.665497   C520.103760,440.405762 518.398132,418.068115 519.429077,395.875305   C520.278015,377.599243 524.596252,359.482544 527.423828,341.302521   C527.780151,339.011597 528.421997,336.765076 528.991455,334.091370  z"/>
</svg>
